<svg width="32" height="32" viewBox="0 0 32 32" fill="none" xmlns="http://www.w3.org/2000/svg">
  <defs>
    <linearGradient id="grad1" x1="0%" y1="0%" x2="100%" y2="100%">
      <stop offset="0%" style="stop-color:#22d3ee;stop-opacity:1" />
      <stop offset="100%" style="stop-color:#4ade80;stop-opacity:1" />
    </linearGradient>
    <linearGradient id="grad2" x1="0%" y1="0%" x2="100%" y2="100%">
      <stop offset="0%" style="stop-color:#3b82f6;stop-opacity:1" />
      <stop offset="100%" style="stop-color:#8b5cf6;stop-opacity:1" />
    </linearGradient>
  </defs>
  
  <!-- Background circle -->
  <circle cx="16" cy="16" r="15" fill="url(#grad1)" stroke="#1f2937" stroke-width="1"/>
  
  <!-- Container/Box -->
  <rect x="8" y="10" width="8" height="6" rx="1" fill="url(#grad2)" opacity="0.9"/>
  <rect x="9" y="11" width="6" height="4" rx="0.5" fill="white" opacity="0.3"/>
  
  <!-- Gear -->
  <circle cx="22" cy="12" r="3" fill="none" stroke="white" stroke-width="1.5" opacity="0.8"/>
  <circle cx="22" cy="12" r="1.5" fill="white" opacity="0.6"/>
  <rect x="21.5" y="8" width="1" height="2" fill="white" opacity="0.8"/>
  <rect x="21.5" y="18" width="1" height="2" fill="white" opacity="0.8"/>
  <rect x="18" y="11.5" width="2" height="1" fill="white" opacity="0.8"/>
  <rect x="26" y="11.5" width="2" height="1" fill="white" opacity="0.8"/>
  
  <!-- Cloud -->
  <ellipse cx="12" cy="22" rx="4" ry="2.5" fill="white" opacity="0.7"/>
  <ellipse cx="14" cy="20" rx="2" ry="1.5" fill="white" opacity="0.5"/>
  <ellipse cx="10" cy="20" rx="1.5" ry="1" fill="white" opacity="0.5"/>
  
  <!-- Connection lines -->
  <path d="M16 16 L22 12" stroke="white" stroke-width="1" opacity="0.6" stroke-dasharray="2,2"/>
  <path d="M12 16 L12 20" stroke="white" stroke-width="1" opacity="0.6" stroke-dasharray="2,2"/>
</svg> 